<?xml version="1.0" encoding="utf-8"?><!-- Uploaded to: SVG Repo, www.svgrepo.com, Generator: SVG Repo Mixer Tools -->
<svg fill="#000000" width="800px" height="800px" viewBox="0 0 24 24" id="delete-alt" data-name="Flat Line" xmlns="http://www.w3.org/2000/svg" class="icon flat-line"><path id="secondary" d="M5,8H18a1,1,0,0,1,1,1V19a1,1,0,0,1-1,1H5a0,0,0,0,1,0,0V8A0,0,0,0,1,5,8Z" transform="translate(26 2) rotate(90)" style="fill: rgb(44, 169, 188); stroke-width: 2;"></path><path id="primary" d="M16,7V4a1,1,0,0,0-1-1H9A1,1,0,0,0,8,4V7" style="fill: none; stroke: rgb(0, 0, 0); stroke-linecap: round; stroke-linejoin: round; stroke-width: 2;"></path><path id="primary-2" data-name="primary" d="M10,11v6m4-6v6M4,7H20M18,20V7H6V20a1,1,0,0,0,1,1H17A1,1,0,0,0,18,20Z" style="fill: none; stroke: rgb(0, 0, 0); stroke-linecap: round; stroke-linejoin: round; stroke-width: 2;"></path></svg>